<svg width="145" height="53" viewBox="0 0 145 53" fill="none" xmlns="http://www.w3.org/2000/svg">
<path d="M43.4169 40.7411C42.3352 41.2718 41.8964 42.5834 42.426 43.66C42.426 43.66 42.426 43.6676 42.4335 43.6676C41.0417 44.8352 39.4985 45.8511 37.8041 46.6851C26.3514 52.3334 12.5009 47.6025 6.86531 36.1238C1.22977 24.6451 5.95 10.7631 17.4026 5.11471C19.0971 4.28073 20.852 3.6742 22.6146 3.27995C22.6221 3.29511 22.6297 3.31027 22.6373 3.32544C23.1668 4.40962 24.4754 4.84936 25.5496 4.31864C26.6313 3.78792 27.0776 2.47629 26.5405 1.39969C26.011 0.31551 24.7024 -0.124229 23.6282 0.406489C22.9474 0.740083 22.5238 1.38453 22.433 2.08204C19.5888 2.38531 16.7521 3.18897 14.0364 4.52334C1.5853 10.6569 -3.53586 25.7521 2.58381 38.2315C8.71104 50.711 23.7644 55.8438 36.2155 49.7102C38.9236 48.3758 41.2837 46.6169 43.2581 44.5546C43.8708 44.9261 44.6575 44.9944 45.3459 44.6532C46.4276 44.1225 46.8663 42.8108 46.3368 41.7342C45.7997 40.6576 44.4911 40.2103 43.4169 40.7411Z" fill="#79A429"/>
<path d="M28.9544 43.447C28.0921 43.0907 27.1087 43.4925 26.7456 44.3568V44.3644C25.3613 44.1445 23.977 43.7654 22.623 43.1968C13.4851 39.3832 9.16574 28.8598 12.9782 19.7012C16.7832 10.5425 27.2751 6.21335 36.413 10.0269C37.7671 10.5956 39.0152 11.3082 40.1423 12.1422C40.1348 12.1574 40.1272 12.165 40.1272 12.1801C39.7717 13.0444 40.1726 14.0376 41.0349 14.394C41.8973 14.7503 42.8882 14.3485 43.2438 13.4842C43.5993 12.6199 43.1984 11.6267 42.336 11.2703C41.7914 11.0429 41.2013 11.1263 40.7475 11.4295C39.1135 9.92079 37.1997 8.66981 35.0363 7.76759C25.1041 3.62041 13.6969 8.32106 9.55909 18.2758C5.42132 28.2306 10.1113 39.6637 20.0435 43.8109C22.2069 44.7132 24.4309 45.1984 26.6473 45.2969C26.7456 45.8428 27.1087 46.3356 27.6609 46.5707C28.5233 46.927 29.5142 46.5252 29.8697 45.6609C30.2253 44.7966 29.8168 43.8033 28.9544 43.447Z" fill="#2088D2"/>
<path d="M42.0311 31.0523C41.6453 32.4094 41.0704 33.6149 40.2912 34.6763C39.5121 35.7378 38.5514 36.6627 37.4016 37.4588C36.2518 38.2549 35.0566 38.8462 33.8085 39.2253C32.5603 39.6044 31.2592 39.8015 29.9052 39.8015C29.8447 39.8015 29.7766 39.8015 29.7085 39.8015C29.6329 39.8015 29.5723 39.8015 29.5118 39.8015C29.4816 39.8015 29.4437 39.8015 29.3984 39.8015C29.353 39.8015 29.3152 39.8015 29.2849 39.8015C29.2546 39.7712 29.2244 39.756 29.1941 39.756C29.1639 39.756 29.1336 39.756 29.1033 39.756C28.3393 39.7257 27.5829 39.6272 26.834 39.4452C26.0851 39.2708 25.3438 39.0358 24.61 38.7401C23.8763 38.4141 23.1879 38.0502 22.5601 37.6332C21.9247 37.2238 21.3497 36.7461 20.8202 36.2154C20.1773 35.5937 19.5948 34.9189 19.0804 34.1835C18.566 33.4481 18.15 32.6672 17.8247 31.8408C17.4994 31.0144 17.2574 30.1728 17.0985 29.3236C16.9321 28.4669 16.8564 27.5874 16.8564 26.6701C16.8564 24.8732 17.1817 23.2128 17.8247 21.6965C18.4677 20.1801 19.4284 18.8003 20.6916 17.5645C21.9852 16.3286 23.3922 15.3885 24.9051 14.7592C26.418 14.13 28.0746 13.8115 29.8674 13.8115C31.2214 13.8115 32.5225 14.0162 33.7706 14.4332C35.0188 14.8426 36.2291 15.4643 37.4092 16.2907C38.5816 17.1171 39.5575 18.0648 40.3215 19.1414C41.0855 20.218 41.6604 21.416 42.0386 22.7427L35.4273 22.6518C35.102 22.1514 34.7465 21.7116 34.3455 21.325C33.9522 20.9459 33.5134 20.6199 33.0444 20.3545C32.5754 20.0892 32.0686 19.892 31.524 19.7556C30.9793 19.6267 30.3969 19.5584 29.7842 19.5584C28.7251 19.5584 27.7796 19.7328 26.9399 20.0892C26.1002 20.4455 25.3438 20.9611 24.6706 21.6358C24.02 22.3409 23.5359 23.1143 23.2182 23.9558C22.8929 24.7974 22.7341 25.7299 22.7341 26.761C22.7341 27.8528 22.9005 28.8384 23.2409 29.7255C23.5813 30.6125 24.1032 31.3934 24.8067 32.0682C25.48 32.7733 26.2591 33.2964 27.1441 33.6376C28.0292 33.9788 29.0126 34.1456 30.1019 34.1456C30.6314 34.1456 31.1533 34.0774 31.6677 33.9485C32.1821 33.812 32.6738 33.6149 33.1428 33.3495C33.642 33.0842 34.0732 32.7657 34.4439 32.4018C34.8145 32.0303 35.1398 31.6133 35.4348 31.1432V31.0523H42.0311Z" fill="white"/>
<path d="M48.6506 29.3767C48.8851 30.1425 49.2028 30.8172 49.5962 31.3859C49.9971 31.9621 50.4812 32.4549 51.0713 32.8643C51.6613 33.304 52.2891 33.63 52.9699 33.8348C53.6432 34.0395 54.3542 34.1456 55.088 34.1456C55.6478 34.1456 56.1924 34.1001 56.7219 34.0167C57.2514 33.9257 57.7507 33.7817 58.2197 33.577C58.719 33.4026 59.1577 33.1827 59.5435 32.9174C59.9217 32.652 60.2621 32.3563 60.5571 32.0303L67.0399 31.9393C66.6541 33.0614 66.0943 34.0925 65.3454 35.0327C64.5966 35.9728 63.6586 36.8295 62.5466 37.5953C61.427 38.3307 60.2697 38.8842 59.0594 39.2557C57.8566 39.6272 56.6009 39.8091 55.3074 39.8091C53.5146 39.8091 51.858 39.5059 50.3451 38.8993C48.8322 38.2928 47.4403 37.3754 46.177 36.1396C44.9138 34.9038 43.9682 33.5239 43.3555 32.0076C42.7352 30.4912 42.4326 28.8308 42.4326 27.034C42.4326 25.2068 42.7428 23.5161 43.3555 21.9694C43.9758 20.4228 44.9138 18.9974 46.177 17.7009C47.41 16.4045 48.8019 15.434 50.3451 14.782C51.8882 14.1375 53.5751 13.8115 55.3981 13.8115C57.1304 13.8115 58.7416 14.1375 60.2243 14.782C61.7069 15.4264 63.0534 16.4045 64.2562 17.7009C65.4589 18.9671 66.3742 20.3545 66.9869 21.8557C67.6072 23.3569 67.9098 24.9642 67.9098 26.6701C67.9098 26.8748 67.9022 27.0719 67.8871 27.269C67.872 27.4586 67.8493 27.6481 67.819 27.8225C67.7888 27.9969 67.7661 28.1788 67.7509 28.3532C67.7358 28.5276 67.7131 28.7095 67.6829 28.8839C67.6526 28.9446 67.6299 28.9976 67.6148 29.0355C67.5997 29.081 67.5921 29.1341 67.5921 29.1872C67.5921 29.2175 67.5921 29.2554 67.5921 29.3009C67.5921 29.3464 67.5921 29.3995 67.5921 29.4525V29.3616H48.6506V29.3767ZM62.0171 24.1605C61.7826 23.4858 61.4497 22.8565 61.0261 22.2803C60.6025 21.7041 60.0806 21.2112 59.4603 20.8018C58.84 20.3924 58.197 20.0816 57.5162 19.8769C56.843 19.6722 56.1168 19.566 55.3528 19.566C55.3225 19.566 55.2922 19.566 55.262 19.566C55.2317 19.566 55.2015 19.566 55.1712 19.566C55.1409 19.566 55.1107 19.566 55.0804 19.566C55.0502 19.566 55.0199 19.566 54.9897 19.566C54.2862 19.5963 53.5978 19.7328 52.9397 19.983C52.2816 20.2332 51.6386 20.5668 51.0183 20.9762C50.398 21.3856 49.8836 21.8709 49.4752 22.4092C49.0591 22.955 48.7565 23.5691 48.5523 24.2439V24.1529H62.0171V24.1605Z" fill="white"/>
<path d="M69.0732 6.34277H74.9433V39.0122H69.0732V6.34277Z" fill="white"/>
<path d="M82.168 29.3767C82.4025 30.1425 82.7202 30.8172 83.1135 31.3859C83.5069 31.9621 83.9986 32.4549 84.5886 32.8643C85.1786 33.304 85.8065 33.63 86.4873 33.8348C87.1605 34.0395 87.8716 34.1456 88.6053 34.1456C89.1651 34.1456 89.7098 34.1001 90.2393 34.0167C90.7688 33.9257 91.268 33.7817 91.737 33.577C92.2363 33.4026 92.675 33.1827 93.0608 32.9174C93.4466 32.652 93.7794 32.3563 94.0745 32.0303L100.557 31.9393C100.171 33.0614 99.6117 34.0925 98.8552 35.0327C98.1063 35.9728 97.1683 36.8295 96.0563 37.5953C94.9368 38.3307 93.7794 38.8842 92.5691 39.2557C91.3588 39.6272 90.1107 39.8091 88.8171 39.8091C87.0244 39.8091 85.3677 39.5059 83.8548 38.8993C82.3419 38.2928 80.9501 37.3754 79.6868 36.1396C78.4235 34.9038 77.478 33.5239 76.8653 32.0076C76.245 30.4912 75.9424 28.8308 75.9424 27.034C75.9424 25.2068 76.2525 23.5161 76.8653 21.9694C77.4855 20.4228 78.4235 18.9974 79.6868 17.7009C80.9198 16.4045 82.3117 15.434 83.8548 14.782C85.398 14.1375 87.0849 13.8115 88.9079 13.8115C90.6402 13.8115 92.2514 14.1375 93.7416 14.782C95.2243 15.4264 96.5707 16.4045 97.7735 17.7009C98.9762 18.9671 99.8915 20.3545 100.504 21.8557C101.125 23.3569 101.427 24.9642 101.427 26.6701C101.427 26.8748 101.42 27.0719 101.404 27.269C101.389 27.4586 101.367 27.6481 101.336 27.8225C101.306 27.9969 101.283 28.1788 101.268 28.3532C101.253 28.5276 101.23 28.7095 101.2 28.8839C101.17 28.9446 101.147 28.9976 101.132 29.0355C101.117 29.081 101.109 29.1341 101.109 29.1872C101.109 29.2175 101.109 29.2554 101.109 29.3009C101.109 29.3464 101.109 29.3995 101.109 29.4525V29.3616H82.168V29.3767ZM95.5344 24.1605C95.2999 23.4858 94.9671 22.8565 94.5435 22.2803C94.1198 21.7041 93.5979 21.2112 92.9776 20.8018C92.3573 20.3924 91.7143 20.0816 91.0411 19.8769C90.3679 19.6722 89.6417 19.566 88.8777 19.566C88.8474 19.566 88.8171 19.566 88.7869 19.566C88.7566 19.566 88.7264 19.566 88.6961 19.566C88.6658 19.566 88.6356 19.566 88.6053 19.566C88.5751 19.566 88.5448 19.566 88.5146 19.566C87.8111 19.5963 87.1227 19.7328 86.4646 19.983C85.7989 20.2332 85.1635 20.5668 84.5432 20.9762C83.9229 21.3856 83.4085 21.8709 83.0001 22.4092C82.584 22.955 82.2814 23.5691 82.0772 24.2439V24.1529H95.5344V24.1605Z" fill="white"/>
<path d="M103.47 19.7396H100.604V14.5234H103.47V6.34277H109.341V14.5234H112.866V19.7396H109.341V39.0122H103.47V19.7396Z" fill="white"/>
<path d="M118.334 29.3767C118.568 30.1425 118.886 30.8172 119.28 31.3859C119.673 31.9621 120.172 32.4549 120.755 32.8643C121.345 33.304 121.972 33.63 122.653 33.8348C123.327 34.0395 124.038 34.1456 124.771 34.1456C125.331 34.1456 125.876 34.1001 126.405 34.0167C126.935 33.9257 127.434 33.7817 127.903 33.577C128.402 33.4026 128.841 33.1827 129.227 32.9174C129.605 32.652 129.945 32.3563 130.24 32.0303L136.723 31.9393C136.337 33.0614 135.778 34.0925 135.021 35.0327C134.272 35.9728 133.334 36.8295 132.222 37.5953C131.103 38.3307 129.945 38.8842 128.735 39.2557C127.532 39.6272 126.277 39.8091 124.983 39.8091C123.19 39.8091 121.534 39.5059 120.021 38.8993C118.508 38.2928 117.116 37.3754 115.853 36.1396C114.59 34.9038 113.652 33.5239 113.031 32.0076C112.411 30.4912 112.108 28.8308 112.108 27.034C112.108 25.2068 112.419 23.5161 113.031 21.9694C113.652 20.4228 114.59 18.9974 115.853 17.7009C117.086 16.4045 118.478 15.434 120.021 14.782C121.564 14.1375 123.243 13.8115 125.074 13.8115C126.806 13.8115 128.417 14.1375 129.9 14.782C131.383 15.4264 132.729 16.4045 133.932 17.7009C135.135 18.9671 136.05 20.3545 136.67 21.8557C137.291 23.3569 137.593 24.9642 137.593 26.6701C137.593 26.8748 137.586 27.0719 137.57 27.269C137.555 27.4586 137.533 27.6481 137.502 27.8225C137.472 27.9969 137.449 28.1788 137.434 28.3532C137.419 28.5276 137.396 28.7095 137.366 28.8839C137.336 28.9446 137.313 28.9976 137.298 29.0355C137.283 29.081 137.275 29.1341 137.275 29.1872C137.275 29.2175 137.275 29.2554 137.275 29.3009C137.275 29.3464 137.275 29.3995 137.275 29.4525V29.3616H118.334V29.3767ZM131.7 24.1605C131.466 23.4858 131.133 22.8565 130.709 22.2803C130.286 21.7041 129.764 21.2112 129.144 20.8018C128.523 20.3924 127.88 20.0816 127.2 19.8769C126.526 19.6722 125.8 19.566 125.036 19.566C125.006 19.566 124.976 19.566 124.945 19.566C124.915 19.566 124.885 19.566 124.855 19.566C124.824 19.566 124.794 19.566 124.764 19.566C124.734 19.566 124.703 19.566 124.673 19.566C123.97 19.5963 123.281 19.7328 122.623 19.983C121.965 20.2332 121.322 20.5668 120.702 20.9762C120.081 21.3856 119.567 21.8709 119.159 22.4092C118.742 22.955 118.44 23.5691 118.228 24.2439V24.1529H131.7V24.1605Z" fill="white"/>
<path d="M138.751 6.34277H144.613V39.0122H138.751V6.34277Z" fill="white"/>
<path d="M23.6194 0.414301C22.9385 0.747895 22.5149 1.39234 22.4242 2.08986C19.5799 2.39312 16.7432 3.19678 14.0276 4.53116C6.13026 8.42814 1.18308 15.9264 0.18457 24.0692C1.53105 24.7136 2.9683 25.305 4.48876 25.8205C4.51902 17.2987 9.25439 9.12566 17.3938 5.10737C19.0882 4.27338 20.8432 3.66684 22.6057 3.2726C22.6133 3.28776 22.6208 3.30292 22.6284 3.31809C23.1579 4.40227 24.4666 4.84201 25.5407 4.31129C26.6225 3.78057 27.0688 2.46894 26.5317 1.39234C26.0022 0.330903 24.7011 -0.116417 23.6194 0.414301Z" fill="#C4D800"/>
<path d="M42.334 11.2703C41.7893 11.0429 41.1993 11.1263 40.7454 11.4295C39.1115 9.92079 37.1977 8.66981 35.0342 7.76759C25.1021 3.62041 13.6948 8.32106 9.55704 18.2758C8.38455 21.1038 7.92311 24.0455 8.08953 26.9114C9.23933 27.207 10.4194 27.4572 11.6297 27.6771C11.4709 25.0311 11.8945 22.3168 12.9762 19.7012C16.7811 10.5425 27.2731 6.21335 36.411 10.0269C37.765 10.5956 39.0132 11.3082 40.1403 12.1422C40.1327 12.1574 40.1251 12.165 40.1251 12.1801C39.7696 13.0444 40.1705 14.0376 41.0329 14.394C41.8952 14.7503 42.8862 14.3485 43.2417 13.4842C43.5972 12.6199 43.1963 11.6267 42.334 11.2703Z" fill="#7AC8F6"/>
</svg>
