<svg version="1.1" xmlns="http://www.w3.org/2000/svg" xmlns:xlink="http://www.w3.org/1999/xlink" width="1024px" height="1024px" viewBox="0,0,256,256"><g fill="#a982d4" fill-rule="nonzero" stroke="none" stroke-width="1" stroke-linecap="butt" stroke-linejoin="miter" stroke-miterlimit="10" stroke-dasharray="" stroke-dashoffset="0" font-family="none" font-weight="none" font-size="none" text-anchor="none" style="mix-blend-mode: normal"><g transform="translate(0,0.21333) scale(0.25,0.25)"><path d="M529.06667,426.66667c-3.41333,0 -6.82667,0 -10.24,-3.41333l-307.2,-273.06667c-6.82667,-6.82667 -10.24,-20.48 -3.41333,-27.30667c6.82667,-6.82667 17.06667,-6.82667 23.89333,0l293.54667,262.82667l262.82667,-262.82667c6.82667,-6.82667 17.06667,-6.82667 23.89333,0c6.82667,6.82667 6.82667,17.06667 0,23.89333l-273.06667,273.06667c0,3.41333 -6.82667,6.82667 -10.24,6.82667z"></path><path d="M221.86667,290.13333c-10.24,0 -17.06667,-10.24 -17.06667,-17.06667v-136.53333c0,-10.24 6.82667,-17.06667 17.06667,-17.06667h136.53333c10.24,0 17.06667,6.82667 17.06667,17.06667c0,10.24 -6.82667,17.06667 -17.06667,17.06667h-119.46667v119.46667c0,6.82667 -6.82667,17.06667 -17.06667,17.06667zM157.01333,904.53333c-17.06667,0 -30.72,-6.82667 -40.96,-17.06667l-98.98667,-122.88c-10.24,-6.82667 -17.06667,-20.48 -17.06667,-37.54667c0,-17.06667 6.82667,-30.72 17.06667,-40.96c136.53333,-129.70667 300.37333,-194.56 494.93333,-191.14667c191.14667,0 365.22667,68.26667 494.93333,191.14667c10.24,10.24 17.06667,27.30667 17.06667,40.96c0,17.06667 -6.82667,30.72 -17.06667,40.96l-88.74667,116.05333c-23.89333,23.89333 -61.44,23.89333 -81.92,3.41333c-23.89333,-23.89333 -64.85333,-44.37333 -98.98667,-61.44l-23.89333,-10.24c-20.48,-6.82667 -30.72,-30.72 -30.72,-54.61333v-133.12c-61.44,-20.48 -116.05333,-27.30667 -170.66667,-30.72c-61.44,0 -109.22667,10.24 -170.66667,30.72v139.94667c0,20.48 -6.82667,44.37333 -27.30667,54.61333l-20.48,10.24c-34.13333,17.06667 -68.26667,34.13333 -95.57333,58.02667c-10.24,10.24 -23.89333,13.65333 -40.96,13.65333zM505.17333,529.06667c-184.32,0 -334.50667,61.44 -464.21333,184.32c-3.41333,0 -6.82667,6.82667 -6.82667,13.65333c0,6.82667 3.41333,13.65333 6.82667,17.06667l102.4,122.88c6.82667,6.82667 23.89333,6.82667 34.13333,0c30.72,-27.30667 68.26667,-44.37333 102.4,-64.85333l20.48,-10.24c3.41333,-3.41333 6.82667,-13.65333 6.82667,-23.89333v-153.6c0,-6.82667 3.41333,-13.65333 10.24,-17.06667c68.26667,-20.48 122.88,-34.13333 194.56,-34.13333c61.44,0 122.88,13.65333 194.56,34.13333c6.82667,3.41333 10.24,10.24 10.24,17.06667v146.77333c0,13.65333 3.41333,23.89333 10.24,27.30667l23.89333,10.24c37.54667,17.06667 81.92,37.54667 109.22667,64.85333c10.24,10.24 27.30667,10.24 34.13333,0l88.74667,-116.05333c6.82667,-6.82667 6.82667,-13.65333 6.82667,-20.48c0,-6.82667 -3.41333,-13.65333 -6.82667,-17.06667c-122.88,-116.05333 -290.13333,-180.90667 -471.04,-180.90667z"></path></g></g></svg>