<svg width="16" height="18" viewBox="0 0 16 18" fill="none" xmlns="http://www.w3.org/2000/svg">
<path d="M14.9195 13.9376C14.5478 14.12 14.3971 14.5707 14.579 14.9407C14.579 14.9407 14.579 14.9433 14.5816 14.9433C14.1033 15.3445 13.573 15.6936 12.9908 15.9802C9.05525 17.9211 4.29572 16.2954 2.35915 12.351C0.422589 8.40649 2.04462 3.63614 5.98014 1.69517C6.56241 1.40859 7.16548 1.20016 7.77114 1.06468C7.77374 1.0699 7.77634 1.07511 7.77894 1.08032C7.9609 1.45288 8.4106 1.60399 8.77971 1.42161C9.15143 1.23924 9.3048 0.78852 9.12024 0.418564C8.93828 0.0460022 8.48858 -0.105107 8.11946 0.0772657C7.88551 0.1919 7.73995 0.413353 7.70875 0.653043C6.73137 0.757256 5.75659 1.03342 4.8234 1.49196C0.544762 3.59967 -1.21504 8.78687 0.887885 13.0752C2.99341 17.3636 8.16625 19.1274 12.4449 17.0197C13.3755 16.5612 14.1865 15.9567 14.8649 15.2481C15.0755 15.3757 15.3458 15.3992 15.5824 15.282C15.9541 15.0996 16.1049 14.6489 15.9229 14.2789C15.7384 13.9089 15.2887 13.7552 14.9195 13.9376Z" fill="#79A429"/>
<path d="M9.94994 14.8676C9.6536 14.7451 9.31568 14.8832 9.19091 15.1802V15.1828C8.71521 15.1072 8.23952 14.977 7.77422 14.7816C4.63413 13.4711 3.14986 9.85491 4.45997 6.70767C5.76747 3.56044 9.37287 2.07279 12.513 3.38327C12.9783 3.57867 13.4072 3.82357 13.7945 4.11016C13.7919 4.11537 13.7893 4.11798 13.7893 4.12319C13.6671 4.42019 13.8049 4.76149 14.1012 4.88394C14.3975 5.00639 14.7381 4.86831 14.8602 4.5713C14.9824 4.2743 14.8446 3.933 14.5483 3.81055C14.3611 3.73239 14.1584 3.76105 14.0024 3.86526C13.441 3.3468 12.7833 2.91692 12.0399 2.60689C8.62683 1.18177 4.70691 2.79708 3.28503 6.21787C1.86315 9.63866 3.47479 13.5675 6.88782 14.9926C7.63126 15.3026 8.39548 15.4694 9.15711 15.5033C9.19091 15.6908 9.31568 15.8602 9.50544 15.9409C9.80177 16.0634 10.1423 15.9253 10.2645 15.6283C10.3866 15.3313 10.2463 14.99 9.94994 14.8676Z" fill="#2088D2"/>
<path d="M8.11647 0.0799817C7.88252 0.194616 7.73695 0.41607 7.70576 0.65576C6.72838 0.759973 5.7536 1.03614 4.82041 1.49467C2.10662 2.83381 0.4066 5.41048 0.0634766 8.2086C0.526173 8.43005 1.02006 8.63327 1.54254 8.81043C1.55294 5.88204 3.18018 3.0735 5.97715 1.69268C6.55942 1.40609 7.16248 1.19767 7.76815 1.06219C7.77075 1.0674 7.77335 1.07261 7.77595 1.07782C7.95791 1.45038 8.4076 1.60149 8.77672 1.41912C9.14844 1.23675 9.3018 0.786025 9.11724 0.416069C8.93529 0.0513234 8.48819 -0.102391 8.11647 0.0799817Z" fill="#C4D800"/>
<path d="M14.5474 3.81055C14.3603 3.73239 14.1575 3.76105 14.0015 3.86526C13.4401 3.3468 12.7824 2.91692 12.039 2.60689C8.62595 1.18177 4.70602 2.79708 3.28414 6.21787C2.88123 7.18966 2.72267 8.20052 2.77986 9.18534C3.17497 9.28694 3.58048 9.37292 3.99638 9.44847C3.9418 8.53921 4.08736 7.60651 4.45908 6.70767C5.76659 3.56044 9.37198 2.07279 12.5121 3.38327C12.9774 3.57867 13.4063 3.82357 13.7936 4.11016C13.791 4.11537 13.7884 4.11798 13.7884 4.12319C13.6662 4.42019 13.804 4.76149 14.1003 4.88394C14.3967 5.00639 14.7372 4.86831 14.8593 4.5713C14.9815 4.2743 14.8437 3.933 14.5474 3.81055Z" fill="#7AC8F6"/>
</svg>
